<?xml version="1.0" standalone="no"?>
<!DOCTYPE svg PUBLIC "-//W3C//DTD SVG 20010904//EN"
 "http://www.w3.org/TR/2001/REC-SVG-20010904/DTD/svg10.dtd">
<svg version="1.0" xmlns="http://www.w3.org/2000/svg"
 width="768.000000pt" height="768.000000pt" viewBox="0 0 768.000000 768.000000"
 preserveAspectRatio="xMidYMid meet">
<metadata>
Created by potrace 1.14, written by Peter Selinger 2001-2017
</metadata>
<g transform="translate(0.000000,768.000000) scale(0.100000,-0.100000)"
fill="#000000" stroke="none">
<path d="M3550 7669 c-815 -61 -1591 -383 -2215 -919 -129 -111 -386 -376
-489 -505 -458 -573 -733 -1237 -823 -1985 -24 -203 -24 -638 1 -845 107 -902
491 -1687 1133 -2315 623 -611 1374 -968 2263 -1076 202 -25 638 -25 840 0
755 92 1402 360 1985 824 158 126 465 434 594 597 400 503 661 1074 775 1695
203 1105 -80 2228 -782 3107 -103 129 -361 395 -487 502 -784 670 -1775 996
-2795 920z m155 -1079 c633 -313 1044 -800 1164 -1377 47 -226 45 -501 -5
-771 -13 -74 -23 -136 -21 -139 8 -7 163 126 237 203 41 43 104 118 139 166
l63 88 37 -29 c60 -48 292 -291 365 -381 211 -265 391 -600 470 -877 169 -590
81 -1084 -281 -1564 -313 -415 -836 -777 -1306 -903 -93 -25 -248 -51 -266
-45 -5 2 8 33 30 69 125 203 220 440 254 633 23 128 16 319 -14 425 -46 157
-101 241 -275 422 -209 216 -328 375 -421 565 -78 159 -123 361 -110 494 7 71
38 188 62 235 l15 29 -58 -33 c-349 -195 -669 -495 -844 -787 -270 -451 -274
-932 -13 -1441 88 -173 227 -375 371 -540 35 -40 62 -75 60 -77 -6 -7 -206 42
-332 80 -449 136 -837 362 -1108 644 -281 292 -430 623 -469 1041 -30 331 37
636 202 915 137 233 383 495 819 875 530 461 771 747 906 1075 89 216 127 478
106 722 -11 120 -50 349 -68 397 -9 24 97 -17 291 -114z"/>
</g>
</svg>
